<svg xmlns="http://www.w3.org/2000/svg" width="278.78" height="423.27" viewBox="0 0 278.78 423.27"><defs><style>.a{fill:#fff;}.b{fill:#dbcec8;}.c{fill:#fdd2bf;}.d{fill:#e8af94;}.e{fill:#3e3127;}.f{fill:#24bacc;}.g{fill:#19a5af;}.h{fill:#eba42c;}.i{fill:#d38a20;}.j{fill:#f65143;}.k{fill:#d32d24;}.l{fill:#ff9797;}</style></defs><line class="a" x1="18.17" transform="translate(192.07 386.05)"/><path class="a" d="M182.21,285.17h2.62A19.85,19.85,0,0,1,204.68,305v72.27H182.21Z"/><rect class="b" width="5.62" height="93.17" transform="translate(185.84 285.55)"/><path class="c" d="M185.56,378.17v18.76H186c9.8,0,17.74-8.4,17.74-18.76Z"/><path class="d" d="M190.87,379.15v18.27a16.537,16.537,0,0,1-4,.49h-.43V379.15Z"/><rect class="e" width="3" height="3.5" transform="translate(202.24 319.74)"/><rect class="e" width="3" height="8.44" transform="translate(202.24 329.27)"/><rect class="e" width="3" height="3.5" transform="translate(202.24 343.74)"/><path class="e" d="M186.27,399.27h-.43v-4h.43c8.68,0,15.75-7.52,15.75-16.76V349h4v29.48C206,390,197.16,399.27,186.27,399.27Z"/><path class="e" d="M206,317.55h-4V304.31c0-9.24-7.07-16.76-15.75-16.76h-.43v-4h.43c10.89,0,19.75,9.31,19.75,20.76Z"/><rect class="e" width="18.17" height="4" transform="translate(185.84 376.51)"/><path class="a" d="M93.85,375H72.91V307.57a18.51,18.51,0,0,1,18.5-18.51h2.44Z"/><path class="c" d="M89.15,375.11V392.6h-.41c-9.14,0-16.55-7.83-16.55-17.49Z"/><path class="e" d="M89.14,395.23h-.4c-10.22,0-18.54-8.74-18.54-19.49V357.39h.08c-.27-2.45-.23-9.83-.08-34.94V306.56c0-10.75,8.32-19.5,18.54-19.5h.4v4h-.4c-8,0-14.54,6.95-14.54,15.5v15.9c-.07,12.2-.14,30.32,0,34.05v19.23c0,8.54,6.52,15.49,14.54,15.49h.4Z"/><rect class="e" width="16.95" height="4" transform="translate(72.2 373.74)"/><rect class="f" width="81.84" height="123.65" transform="matrix(1, -0.006, 0.006, 1, 95.445, 276.919)"/><circle class="g" cx="8.58" cy="8.58" r="8.58" transform="translate(132.03 340)"/><circle class="g" cx="3.82" cy="3.82" r="3.82" transform="translate(125.78 331.94)"/><ellipse class="g" cx="3.36" cy="4.35" rx="3.36" ry="4.35" transform="translate(130.07 358.92)"/><rect class="h" width="63.25" height="9.04" transform="matrix(1, -0.006, 0.006, 1, 105.634, 407.281)"/><rect class="h" width="63.25" height="9.04" transform="translate(105.68 406.29)"/><rect class="h" width="63.25" height="7.44" transform="translate(104.74 407.73)"/><rect class="i" width="63.25" height="5.25" transform="translate(104.74 402.48)"/><rect class="e" width="64.07" height="4" transform="translate(105.09 399.9)"/><rect class="e" width="64.78" height="4" transform="translate(104.74 414.31)"/><rect class="e" width="4" height="14.53" transform="translate(125.37 403.41)"/><rect class="e" width="4" height="15.66" transform="translate(142.87 402.27)"/><circle class="e" cx="1.51" cy="1.51" r="1.51" transform="translate(136.53 408.16)"/><path class="a" d="M106.24,420.81H93.9a3.3,3.3,0,0,1-3.3-3.3V291a19.13,19.13,0,0,1,19.13-19.13H113v142a6.75,6.75,0,0,1-6.76,6.94Z"/><path class="g" d="M173,400.49h0a33.68,33.68,0,0,1-33.67-33.67l-3.14-82.49,36.15-8.26Z"/><path class="c" d="M119.64,189.51h38.24v71.72A16.89,16.89,0,0,1,141,278.12h-4.45a16.89,16.89,0,0,1-16.89-16.89V189.51Z"/><path class="d" d="M159.79,236v11.5a102.8,102.8,0,0,1-38.24.77V236.79a102.23,102.23,0,0,0,38.24-.77Z"/><path class="e" d="M141,280.67h-4.45a19.41,19.41,0,0,1-19.39-19.39V187.06H160.4v74.22A19.42,19.42,0,0,1,141,280.67Zm-18.84-88.61v69.22a14.41,14.41,0,0,0,14.39,14.39H141a14.41,14.41,0,0,0,14.4-14.39V192.06Z"/><path class="e" d="M105.88,423.27H93.54a5.29,5.29,0,0,1-5.29-5.3V291.49a21.16,21.16,0,0,1,21.13-21.14h5.25v3.22c0,12.72.05,23,.09,32.36.08,17.6.14,31.5-.09,51.72v56.73a8.74,8.74,0,0,1-8.75,8.89Zm3.5-148.92a17.15,17.15,0,0,0-17.13,17.14V418a1.3,1.3,0,0,0,1.29,1.3h12.34a4.73,4.73,0,0,0,4.75-4.85v-56.8c.23-20.2.17-34.09.09-51.67,0-9.15-.08-19.22-.09-31.6Z"/><path class="f" d="M165.54,271.88c0,7.45-12.25,13.48-27.38,13.48s-27.36-6-27.36-13.48c0-3.38,2.53-6.47,6.72-8.83,5,2.84,12.42,4.63,20.64,4.63s15.64-1.79,20.65-4.63C163,265.41,165.54,268.5,165.54,271.88Z"/><path class="g" d="M166,270.84c0,7.45-12.26,13.48-27.38,13.48-1,0-2,0-2.93-.09a4.431,4.431,0,0,1,.12-.89,6.58,6.58,0,0,1,3.48-4.08,22.39,22.39,0,0,1,5.26-1.67,30.071,30.071,0,0,0,8.42-3,12.25,12.25,0,0,0,5.68-6.7,10.32,10.32,0,0,0,0-5.54l.57-.31C163.42,264.37,166,267.46,166,270.84Z"/><path class="e" d="M138.53,286.83c-16.46,0-29.36-6.8-29.36-15.48,0-4,2.75-7.76,7.74-10.57l1-.55,1,.55c4.9,2.78,12.07,4.37,19.65,4.37s14.77-1.59,19.66-4.37l1-.55,1,.55c5,2.81,7.76,6.56,7.76,10.57C167.91,280,155,286.83,138.53,286.83Zm-20.59-22c-3.08,2-4.77,4.25-4.77,6.53,0,5.55,10.19,11.48,25.36,11.48s25.38-5.93,25.38-11.48c0-2.28-1.69-4.57-4.78-6.53-5.41,2.76-12.83,4.33-20.6,4.33s-15.17-1.58-20.59-4.34Z"/><path class="a" d="M171.21,418.47h12.34a3.29,3.29,0,0,0,3.29-3.29V288.69a19.12,19.12,0,0,0-19.13-19.13h0l-.9,62.24-2.35,79.78a6.74,6.74,0,0,0,6.75,6.89Z"/><path class="b" d="M184.83,397.59V413.7a3.3,3.3,0,0,1-3.3,3.3H169.18a6.67,6.67,0,0,1-5.35-2.66,24,24,0,0,0,21-16.75Z"/><circle class="b" cx="3.37" cy="3.37" r="3.37" transform="translate(173.53 402.85)"/><circle class="b" cx="1.5" cy="1.5" r="1.5" transform="translate(171.08 399.68)"/><path class="e" d="M182.58,420.48H170.24a8.74,8.74,0,0,1-8.75-8.94h0L164.25,298l.52-30.4h2a21.16,21.16,0,0,1,21.13,21.13V415.18a5.3,5.3,0,0,1-5.32,5.3Zm-17.09-8.85a4.75,4.75,0,0,0,4.75,4.85h12.34a1.3,1.3,0,0,0,1.29-1.3V288.69a17.16,17.16,0,0,0-15.17-17l-.46,26.38Z"/><circle class="j" cx="64.47" cy="64.47" r="64.47" transform="translate(1.18 99.95)"/><path class="a" d="M72.26,227.4c-1.52.12-3.06.17-4.62.17a64.47,64.47,0,0,1,0-128.94c1.56,0,3.1.05,4.62.17a64.47,64.47,0,0,0,0,128.6Z"/><path class="e" d="M67,229.88a67,67,0,1,1,67-67A67,67,0,0,1,67,229.88Zm0-128.94a62,62,0,1,0,62,62,62,62,0,0,0-62-62Z"/><circle class="k" cx="64.47" cy="64.47" r="64.47" transform="translate(145.99 99.95)"/><path class="e" d="M211.78,229.88a67,67,0,1,1,67-67,67,67,0,0,1-67,67Zm0-128.94a62,62,0,1,0,62,62,62,62,0,0,0-62-62Z"/><rect class="c" width="173.57" height="225.7" rx="80.39" transform="translate(52.46 13.56)"/><path class="a" d="M144.87,239c-2.07.14-4.16.22-6.28.22A86.79,86.79,0,0,1,51.8,152.47V100.35a86.79,86.79,0,0,1,86.79-86.79q3.18,0,6.28.23a86.78,86.78,0,0,0-80.5,86.56v52.12A86.79,86.79,0,0,0,144.87,239Z"/><path class="d" d="M226,99.69v52.12a86.788,86.788,0,0,1-86.78,86.78h-.18V12.9h.17A86.79,86.79,0,0,1,226,99.69Z"/><path class="e" d="M138.78,181.8a2.5,2.5,0,0,1-2.5-2.5V155.91a2.5,2.5,0,0,1,5,0V179.3A2.5,2.5,0,0,1,138.78,181.8Z"/><circle class="a" cx="10.2" cy="10.2" r="10.2" transform="translate(56.18 123.29)"/><circle class="a" cx="4.67" cy="4.67" r="4.67" transform="translate(76.87 116.66)"/><path class="e" d="M126.52,148.14a2,2,0,0,1-2-2,14.66,14.66,0,1,0-29.32,0,2,2,0,0,1-4,0,18.66,18.66,0,0,1,37.32,0A2,2,0,0,1,126.52,148.14Z"/><path class="e" d="M184.27,148.14a2,2,0,0,1-2-2,14.67,14.67,0,0,0-29.33,0,2,2,0,0,1-4,0,18.67,18.67,0,0,1,37.33,0,2,2,0,0,1-2,2Z"/><path class="e" d="M143.75,241.76H132.1A83.55,83.55,0,0,1,48.64,158.3V94.52A83.55,83.55,0,0,1,132.1,11.06h11.65a83.55,83.55,0,0,1,83.46,83.46V158.3a83.55,83.55,0,0,1-83.46,83.46ZM132.1,16.06A78.55,78.55,0,0,0,53.64,94.52V158.3a78.55,78.55,0,0,0,78.46,78.46h11.65a78.55,78.55,0,0,0,78.46-78.46V94.52a78.55,78.55,0,0,0-78.46-78.46Z"/><path class="j" d="M233,103.52C233,47.83,189.61,1.33,136.11,1.33S39.24,47.83,39.24,103.52H79.57L93.46,69.43l7.27,34.09h13.89V82.66l12.56,20.86h19.18l10.58-38,9.06,38Z"/><path class="k" d="M235,104.18H168l-9-38.05-10.59,38.05H129.16l-3.93-6.52C155,73.53,156.62,31.55,153.63,3.32,199.74,11.27,235,54,235,104.18Z"/><path class="l" d="M145,.14C93.8,2.92,53.1,48.25,53.1,102.19H43.21C43.21,46.51,86.58,0,140.08,0,141.73,0,143.39.05,145,.14Z"/><path class="e" d="M236.8,107.34H165.34L158.07,76.8l-8.49,30.54H127.09L118.44,93v14.36H100L94,79.22,82.58,107.34H38.06v-2.5A106.9,106.9,0,0,1,67.11,31.15c18.86-20,43.83-31,70.32-31s51.46,11,70.32,31a106.9,106.9,0,0,1,29.05,73.69Zm-67.51-5h62.48a101.81,101.81,0,0,0-27.66-67.76c-17.9-19-41.58-29.43-66.68-29.43S88.65,15.6,70.75,34.58a101.81,101.81,0,0,0-27.66,67.76H79.21L95.53,62.29l8.55,40.05h9.36V75l16.48,27.35h15.86l12.67-45.56Z"/><circle class="k" cx="10.2" cy="10.2" r="10.2" transform="translate(139.36 33.3)"/><circle class="k" cx="4.55" cy="4.55" r="4.55" transform="translate(132.03 23.63)"/><path class="e" d="M139,213.86a23.14,23.14,0,0,1-23.12-23.12,2,2,0,1,1,4,0,19.12,19.12,0,1,0,38.23,0,2,2,0,0,1,4,0A23.14,23.14,0,0,1,139,213.86Z"/><ellipse class="l" cx="1.57" cy="2.24" rx="1.57" ry="2.24" transform="translate(59.522 86.962) rotate(-21.45)"/><ellipse class="l" cx="1.27" cy="1.9" rx="1.27" ry="1.9" transform="translate(70.559 80.398) rotate(-21.45)"/><ellipse class="l" cx="5.95" cy="4.4" rx="5.95" ry="4.4" transform="translate(61.083 77.775) rotate(-72.13)"/><ellipse class="a" cx="1.57" cy="2.24" rx="1.57" ry="2.24" transform="translate(17.578 151.917) rotate(-21.45)"/><ellipse class="a" cx="1.27" cy="1.9" rx="1.27" ry="1.9" transform="translate(28.628 145.352) rotate(-21.45)"/><ellipse class="a" cx="5.95" cy="4.4" rx="5.95" ry="4.4" transform="translate(19.153 142.723) rotate(-72.13)"/><path class="a" d="M89,29.88A134.54,134.54,0,0,0,78.76,41.21a45.56,45.56,0,0,0-7.37,13c-.12.34-.85,1.12-1.38,1S69.37,54,69.5,53.6c2.42-6.66,6.7-12.32,11.33-17.38q2.1-2.22,4.28-4.32c.25-.29,3.23-3.6,3.63-3.21A.922.922,0,0,1,89,29.88Z"/><path class="a" d="M97.26,23.43l-5.21,3.82a1.681,1.681,0,0,1-.83-.64,1.49,1.49,0,0,1-.36-1l3.73-2.22,1.16-.58c.06,0,.71-.74,1-.3S97.32,23.38,97.26,23.43Z"/></svg>