<svg xmlns="http://www.w3.org/2000/svg" width="454.41" height="552.27" viewBox="0 0 454.41 552.27"><defs><style>.a,.f{fill:#4b2e4c;}.a{opacity:0.08;}.b{fill:#584e60;}.c{fill:#ac8067;}.d,.e{fill:#c69a83;}.d{opacity:0.8;}.g{fill:#67ffca;}.h,.v{fill:#fff;}.i{fill:#665c6d;}.j{opacity:0.27;}.k{fill:#f9c9ab;}.l,.r,.t{fill:#e19f7f;}.l{opacity:0.46;}.m{fill:#4f3e52;}.n{fill:#443547;}.o{opacity:0.21;}.p{fill:#f0cae7;}.q{fill:#a0725c;}.r{opacity:0.31;}.s{fill:#dc8c72;}.t{opacity:0.69;}.u{fill:#d6836f;opacity:0.42;}.v{opacity:0.15;}.w{fill:#413044;}.x{opacity:0.51;}.y{fill:#f9646b;}.z{fill:#eab192;}</style></defs><rect class="a" width="442.26" height="276.34" rx="11.82" transform="translate(12.15 82.52)"/><rect class="b" width="31.8" height="100.1" rx="15.9" transform="translate(270.07 450.83)"/><rect class="b" width="35.64" height="136.55" rx="17.82" transform="translate(268.54 357.9)"/><circle class="c" cx="13.39" cy="13.39" r="13.39" transform="translate(250.53 0)"/><path class="d" d="M254.56,22.06a1.49,1.49,0,0,1-1.05-.43c-2.32-2.27-3.06-5.95-3-8.63a12,12,0,0,1,1.2-5,1.5,1.5,0,1,1,2.68,1.35,8.91,8.91,0,0,0-.88,3.77c-.07,2.11.55,4.9,2.07,6.4a1.5,1.5,0,0,1-1.05,2.57Z"/><circle class="e" cx="1.29" cy="1.29" r="1.29" transform="translate(252.54 9.97)"/><circle class="e" cx="0.5" cy="0.5" r="0.5" transform="translate(255.49 9.28)"/><circle class="e" cx="0.71" cy="0.71" r="0.71" transform="translate(256.49 11.13)"/><circle class="e" cx="1.01" cy="1.01" r="1.01" transform="translate(254.56 13.1)"/><circle class="e" cx="0.47" cy="0.47" r="0.47" transform="translate(258.54 9.45)"/><circle class="e" cx="0.34" cy="0.34" r="0.34" transform="translate(256.9 8.99)"/><circle class="e" cx="0.53" cy="0.53" r="0.53" transform="translate(258.7 11.49)"/><circle class="e" cx="0.13" cy="0.13" r="0.13" transform="translate(255.83 8.02)"/><rect class="f" width="442.26" height="276.34" rx="11.82" transform="translate(0 70.18)"/><rect class="g" width="149.86" height="22.79" transform="translate(23.2 90.79)"/><rect class="h" width="149.86" height="9.69" transform="translate(23.2 140.52)"/><rect class="h" width="149.86" height="9.69" transform="translate(23.2 163.45)"/><rect class="h" width="68.23" height="9.63" transform="translate(23.2 186.41)"/><path class="g" d="M31.84,319.65A11.15,11.15,0,1,1,43,308.5,11.15,11.15,0,0,1,31.84,319.65Zm0-17.29a6.14,6.14,0,1,0,4.355,1.791,6.15,6.15,0,0,0-4.355-1.791Z"/><path class="h" d="M44.5,296.64a2,2,0,0,1-1.62-3.17L50.51,283a2,2,0,1,1,3.24,2.34l-7.63,10.53A2,2,0,0,1,44.5,296.64Zm73.62-16.06a2,2,0,0,1-1.43-.59l-5.18-5.25a2,2,0,1,1,2.84-2.81l3.57,3.61,2-2.64a2,2,0,0,1,3.18,2.43l-3.42,4.47a2,2,0,0,1-1.46.78Zm-57.77-5.79a2,2,0,0,1-1.62-3.18l7.64-10.52a2,2,0,1,1,3.23,2.35L62,274a2,2,0,0,1-1.65.79Zm42.74-9.42a2,2,0,0,1-1.42-.59l-9.13-9.25a2,2,0,1,1,2.84-2.81l9.14,9.25a2,2,0,0,1-1.43,3.4ZM130,265a2,2,0,0,1-1.59-3.21l7.9-10.33a2,2,0,1,1,3.18,2.43l-7.9,10.33A2,2,0,0,1,130,265ZM76.2,252.93a2,2,0,0,1-1.61-3.17l6.18-8.53a2,2,0,0,1,3.04-.23l1.73,1.76a2,2,0,1,1-2.84,2.81l-.08-.08-4.8,6.61A2,2,0,0,1,76.2,252.93Zm147.16-7.1a2,2,0,0,1-1.5-.68l-8.6-9.75a2,2,0,0,1,3-2.64l8.6,9.75a2,2,0,0,1-1.5,3.32Zm-76.93-2.29a2,2,0,0,1-1.59-3.21L152.73,230a2,2,0,1,1,3.18,2.43L148,242.76A2,2,0,0,1,146.43,243.54Zm86-4.58a2,2,0,0,1-1.53-3.29l8.37-9.95a2,2,0,1,1,3.06,2.58l-8.37,9.95a2,2,0,0,1-1.55.75Zm82-5.59a2,2,0,0,1-1.4-.57l-9.26-9.13a2,2,0,0,1,2.8-2.85l9.26,9.13a2,2,0,0,1-1.4,3.42Zm9.65-.19a2,2,0,0,1-1.49-3.34l8.67-9.69a1.974,1.974,0,0,1,2.9,2.68l-8.67,9.69a2,2,0,0,1-1.49.66Zm-118.53-7.6a2,2,0,0,1-1.5-.68l-8.6-9.75a2,2,0,0,1,3-2.64l8.6,9.75a2,2,0,0,1-1.5,3.32Zm-42.68-3.49a1.995,1.995,0,0,1-1.58-3.21l7.89-10.33a2,2,0,1,1,3.18,2.43l-7.9,10.33a2,2,0,0,1-1.64.78Zm87-3.79a2,2,0,0,1-1.53-3.29l8.37-9.95a2,2,0,0,1,3.06,2.58l-8.37,10a2,2,0,0,1-1.6.66Zm45.35-3.88a2,2,0,0,1-1.41-.58l-9.26-9.12a2,2,0,0,1,2.81-2.85l9.26,9.12a2,2,0,0,1-1.4,3.43ZM342,213a2,2,0,0,1-1.49-3.33L349.2,200a2,2,0,0,1,3,2.66l-8.66,9.7A2,2,0,0,1,342,213Zm-154.38-7.71a2,2,0,0,1-1.5-.68l-4.82-5.46-.51.67a2,2,0,1,1-3.18-2.43l2-2.61a2.01,2.01,0,0,1,3.09-.11l6.43,7.3a2,2,0,0,1-1.5,3.32Zm79.54-7.69a2,2,0,0,1-1.53-3.29l5-5.89a2,2,0,0,1,2.93-.14l3.78,3.72a2,2,0,1,1-2.81,2.85l-2.23-2.2-3.57,4.24a2,2,0,0,1-1.55.75ZM360,192.91a1.995,1.995,0,0,1-1.49-3.33l8.66-9.69a2,2,0,0,1,3,2.66l-8.66,9.69a2,2,0,0,1-1.51.67Zm18-20.13a2,2,0,0,1-1.49-3.33l8.66-9.7a2.008,2.008,0,1,1,3,2.67l-8.66,9.69a2,2,0,0,1-1.51.67Zm18-20.13a2,2,0,0,1-1.49-3.34l6.07-6.79a2.008,2.008,0,1,1,3,2.67L397.49,152A2,2,0,0,1,396,152.65Z"/><rect class="i" width="31.8" height="100.1" rx="15.9" transform="translate(228.4 450.83)"/><rect class="i" width="35.64" height="136.55" rx="17.82" transform="translate(226.48 357.9)"/><path class="f" d="M286.83,535.62h14.6a16.65,16.65,0,0,1,16.65,16.65h-47.9a16.65,16.65,0,0,1,16.65-16.65Z"/><path class="f" d="M229.16,535.62h14.6a16.65,16.65,0,0,1,16.65,16.65h-47.9A16.65,16.65,0,0,1,229.16,535.62Z"/><g class="j"><rect class="h" width="4.42" height="15.03" rx="2.21" transform="translate(234.05 423.99)"/><rect class="h" width="4.42" height="8.03" rx="2.21" transform="translate(234.05 443.22)"/></g><circle class="i" cx="38.39" cy="38.39" r="38.39" transform="translate(225.79 343.44)"/><path class="k" d="M345.08,303.41l-9.35,74.78-17.53-.58-7.59-82.97"/><path class="k" d="M188.26,303.41l9.34,74.78,17.53-.58,7.6-82.97"/><path class="l" d="M188.26,303.41l4.51,2.48a43.22,43.22,0,0,1,22.36,37.85V377.6l7.6-83"/><path class="l" d="M344.94,303.41l-4.51,2.48a43.2,43.2,0,0,0-22.36,37.85V377.6l-7.6-83"/><path class="m" d="M352,310.48a628.379,628.379,0,0,1-8.4-64.38c-.8-10.18-1.67-21.19-8.4-28.86-5.58-6.37-14.12-9.13-22.22-11.62L294.78,200l-26.15-20.78c0-1.65,0-3.29-.05-4.94l-3.09,2.45-3.08-2.45c0,1.65,0,3.29-.05,4.94L236.21,200,218,205.62c-8.1,2.49-16.64,5.25-22.23,11.62-6.72,7.67-7.6,18.68-8.39,28.86a631.173,631.173,0,0,1-8.4,64.38c-.22,1.2-.33,2.69.67,3.38a3.21,3.21,0,0,0,1.59.4q17.81,1.32,35.67,1.34l.28.49c8.72,18.47,2.13,41.2,10,60.06,1,2.35,2.26,4.71,4.4,6.08a14.28,14.28,0,0,0,6.15,1.7,269.06,269.06,0,0,0,47.24.76c4.71-.29,10.24-.05,14.45-2.46,2.14-1.37,3.43-3.73,4.41-6.08,7.85-18.86,1.26-41.59,10-60.06l.29-.49q17.85,0,35.66-1.34a3.16,3.16,0,0,0,1.59-.4C352.35,313.17,352.24,311.68,352,310.48Z"/><path class="n" d="M317.41,207a47.71,47.71,0,0,1-70.81,4.39,47.74,47.74,0,0,0,50.62-10.64l15.1,4.63C314,205.94,315.72,206.47,317.41,207Z"/><g class="o"><path class="p" d="M300.09,196.63a.15.15,0,1,0-.15-.15A.15.15,0,0,0,300.09,196.63Z"/></g><path class="c" d="M264.08,24h0A51.12,51.12,0,0,0,213,75.15h0a16.47,16.47,0,0,0,16.47,16.47h69.29a16.46,16.46,0,0,0,16.46-16.47h0A51.11,51.11,0,0,0,264.08,24Z"/><path class="c" d="M216.61,125.64h95.48V167a47.74,47.74,0,0,1-47.74,47.74h0A47.74,47.74,0,0,1,216.61,167V125.64Z"/><path class="q" d="M264.31,204.72h0a47.732,47.732,0,0,1-47.74-47.73V167a47.74,47.74,0,0,0,47.74,47.74h0A47.74,47.74,0,0,0,312,167V157a47.728,47.728,0,0,1-47.68,47.72Z"/><circle class="k" cx="14.54" cy="14.54" r="14.54" transform="translate(203.85 97.88)"/><path class="r" d="M231.2,119.27A14.54,14.54,0,1,1,210,100.56a14.21,14.21,0,0,0-1.73,6.87A14.54,14.54,0,0,0,222.78,122a14.37,14.37,0,0,0,8.42-2.73Z"/><circle class="s" cx="7.91" cy="7.91" r="7.91" transform="translate(210.48 104.51)"/><circle class="k" cx="14.54" cy="14.54" r="14.54" transform="translate(296.97 97.88)"/><path class="r" d="M324.32,119.27a14.54,14.54,0,1,1-21.24-18.71,14.21,14.21,0,0,0-1.73,6.87A14.54,14.54,0,0,0,315.9,122a14.37,14.37,0,0,0,8.42-2.73Z"/><circle class="s" cx="7.91" cy="7.91" r="7.91" transform="translate(303.6 104.51)"/><path class="k" d="M297.59,44.91A47.5,47.5,0,0,0,216.5,78.5v56.55a47.505,47.505,0,1,0,95.01,0L311.5,78.5A47.29,47.29,0,0,0,297.59,44.91Zm-53.11,95.54.16.07"/><path class="t" d="M307.94,78.14v5.29c0-12.07-4.85-18-12.72-25.86a43.07,43.07,0,0,0-30.69-12.79c-24,0-43.4,18.55-43.4,42.65V82.14c0-24.1,19.43-42.65,43.4-42.65a43.07,43.07,0,0,1,30.69,12.79C303.09,60.18,307.94,66.08,307.94,78.14Z"/><path class="c" d="M297.89,44.16a47.15,47.15,0,0,0-33.59-14c-26.23,0-48.5,21.39-48.5,47.77l1,56.86a47.505,47.505,0,1,0,95.01,0l.99-56.86C312.81,64.73,306.5,52.8,297.89,44.16Zm9.82,88.18a43.408,43.408,0,1,1-86.815,0l.005-48c0-24.1,19.43-42.64,43.4-42.64A43,43,0,0,1,295,54.53c7.87,7.89,12.72,13.79,12.72,25.85Z"/><path class="q" d="M307.71,74.5v5.86c0-12.07-4.85-18-12.72-25.86A43,43,0,0,0,264.3,41.71c-24,0-43.4,18.54-43.4,42.65V78.5c0-24.1,19.43-42.64,43.4-42.64A43,43,0,0,1,295,48.65C302.86,56.54,307.71,62.44,307.71,74.5Z"/><rect class="u" width="6.24" height="16.23" rx="3.12" transform="translate(261.59 115.36)"/><circle class="h" cx="13.15" cy="13.15" r="13.15" transform="translate(269.44 92.22)"/><circle class="c" cx="19.06" cy="19.06" r="19.06" transform="translate(244.1 150.52)"/><circle class="c" cx="19.06" cy="19.06" r="19.06" transform="translate(227.67 143.86)"/><circle class="c" cx="19.06" cy="19.06" r="19.06" transform="translate(263.17 143.41)"/><circle class="c" cx="19.06" cy="19.06" r="19.06" transform="translate(245.45 135.04)"/><path class="c" d="M311.81,140.28a51.432,51.432,0,0,0,.06-9.95h-.06V98h0a5.89,5.89,0,0,0-5.88,5.89V126.3a25,25,0,0,1-4.46,14.51,19.08,19.08,0,0,1-16.24,8.35l14.88,18.55a49.62,49.62,0,0,0,11.68-27.18h0Z"/><ellipse class="m" cx="4.54" cy="7.38" rx="4.54" ry="7.38" transform="translate(278.05 98.39)"/><circle class="h" cx="13.15" cy="13.15" r="13.15" transform="translate(233.21 92.22)"/><ellipse class="m" cx="4.54" cy="7.38" rx="4.54" ry="7.38" transform="translate(242.11 98.39)"/><rect class="c" width="29.14" height="7.5" rx="3.75" transform="translate(232.08 75.02)"/><rect class="c" width="29.14" height="7.5" rx="3.75" transform="translate(268.11 73.66)"/><circle class="h" cx="2.2" cy="2.2" r="2.2" transform="translate(248.23 101.37)"/><circle class="h" cx="2.2" cy="2.2" r="2.2" transform="translate(284.45 101.37)"/><path class="c" d="M243.45,149.15a19.27,19.27,0,0,1-17-9.41,25.2,25.2,0,0,1-3.81-13.56v-22.3A5.89,5.89,0,0,0,216.8,98h0l-.3,23v9.3c.06,3.53-.06,6.46.2,9.36l.1.9v.51c.31,2.9.23,5.42.92,7.91a41.93,41.93,0,0,0,10.89,18.76Z"/><circle class="v" cx="3.33" cy="3.33" r="3.33" transform="translate(275.57 105.77)"/><circle class="v" cx="3.33" cy="3.33" r="3.33" transform="translate(239.02 105.77)"/><rect class="m" width="38.42" height="12.68" rx="6.34" transform="translate(245.1 18.72)"/><path class="w" d="M283.51,25.06a6.33,6.33,0,0,1-6.34,6.34H251.44a6.34,6.34,0,0,1-6.34-6.34,5.69,5.69,0,0,1,.22-1.61,6.31,6.31,0,0,0,6.12,4.72h25.73a6.33,6.33,0,0,0,6.13-4.72,6.069,6.069,0,0,1,.21,1.61Z"/><rect class="m" width="6.98" height="3" transform="translate(261.05 100.97)"/><g class="x"><path class="h" d="M296.05,84.74l-26.68,31.9a9.133,9.133,0,0,1-.14-1.59V99.4l12.26-14.66Z"/><path class="h" d="M309.36,86.24l-31.25,37.37h-.31a8.46,8.46,0,0,1-5.66-2.15l30.71-36.72h1.67a8.54,8.54,0,0,1,4.84,1.5Z"/></g><path class="m" d="M304.36,125.6H277.63a10.08,10.08,0,0,1-10.07-10.07V93.8a10.08,10.08,0,0,1,10.07-10.06h26.73A10.07,10.07,0,0,1,314.42,93.8v21.73A10.08,10.08,0,0,1,304.36,125.6ZM277.63,86.74a7.07,7.07,0,0,0-7.07,7.06v21.73a7.08,7.08,0,0,0,7.07,7.07h26.73a7.07,7.07,0,0,0,7.06-7.07V93.8a7.07,7.07,0,0,0-7.06-7.06Z"/><g class="x"><path class="h" d="M243.85,85.7l-26.68,31.9A9.22,9.22,0,0,1,217,116V100.35L229.28,85.7Z"/><path class="h" d="M257.16,87.2l-31.25,37.36h-.32a8.4,8.4,0,0,1-5.65-2.15L250.65,85.7h1.67A8.46,8.46,0,0,1,257.16,87.2Z"/></g><path class="m" d="M252.39,126.55H225.65a10.07,10.07,0,0,1-10.06-10.06V94.75a10.08,10.08,0,0,1,10.06-10.06h26.74a10.08,10.08,0,0,1,10.06,10.06v21.74a10.07,10.07,0,0,1-10.06,10.06ZM225.65,87.69a7.07,7.07,0,0,0-7.06,7.06v21.74a7.07,7.07,0,0,0,7.06,7.06h26.74a7.07,7.07,0,0,0,7.06-7.06V94.75a7.07,7.07,0,0,0-7.06-7.06Z"/><circle class="q" cx="3.46" cy="3.46" r="3.46" transform="translate(282.22 194.91)"/><circle class="q" cx="0.58" cy="0.58" r="0.58" transform="translate(288.18 191.9)"/><circle class="q" cx="1.42" cy="1.42" r="1.42" transform="translate(283.31 188.65)"/><circle class="q" cx="0.71" cy="0.71" r="0.71" transform="translate(280.14 193.06)"/><circle class="q" cx="1.1" cy="1.1" r="1.1" transform="translate(277.08 188.65)"/><circle class="q" cx="1.27" cy="1.27" r="1.27" transform="translate(278.18 199.29)"/><circle class="q" cx="0.45" cy="0.45" r="0.45" transform="translate(278.64 196.49)"/><circle class="q" cx="0.48" cy="0.48" r="0.48" transform="translate(273.47 193.06)"/><circle class="q" cx="0.83" cy="0.83" r="0.83" transform="translate(276 192.48)"/><circle class="q" cx="0.5" cy="0.5" r="0.5" transform="translate(273.95 198.29)"/><circle class="q" cx="2.08" cy="2.08" r="2.08" transform="translate(233.96 43.79)"/><circle class="q" cx="0.42" cy="0.42" r="0.42" transform="translate(236.25 41.74)"/><circle class="q" cx="0.33" cy="0.33" r="0.33" transform="translate(233.96 39.66)"/><circle class="q" cx="0.84" cy="0.84" r="0.84" transform="translate(231.72 42.75)"/><circle class="q" cx="0.39" cy="0.39" r="0.39" transform="translate(233.7 41.37)"/><circle class="q" cx="1.24" cy="1.24" r="1.24" transform="translate(237.09 39.07)"/><circle class="q" cx="0.27" cy="0.27" r="0.27" transform="translate(238.13 42.58)"/><circle class="q" cx="0.47" cy="0.47" r="0.47" transform="translate(232.34 45.87)"/><circle class="q" cx="0.44" cy="0.44" r="0.44" transform="translate(231.28 45.35)"/><circle class="q" cx="0.46" cy="0.46" r="0.46" transform="translate(231.43 40.32)"/><circle class="q" cx="0.3" cy="0.3" r="0.3" transform="translate(234.63 42.74)"/><circle class="q" cx="1.26" cy="1.26" r="1.26" transform="translate(239.89 40.9)"/><circle class="k" cx="14.8" cy="14.8" r="14.8" transform="translate(312.63 370.35)"/><circle class="k" cx="14.8" cy="14.8" r="14.8" transform="translate(191.11 370.35)"/><rect class="y" width="38.76" height="22.08" rx="6.28" transform="translate(276.51 239.29)"/><rect class="z" width="10.38" height="3.96" rx="1.98" transform="translate(192.13 363.58)"/><rect class="z" width="10.38" height="3.96" rx="1.98" transform="translate(189.8 356.48)"/><rect class="z" width="10.38" height="3.96" rx="1.98" transform="translate(188.86 349.37)"/><rect class="h" width="9.9" height="2.04" rx="1.02" transform="translate(223.75 96.9) rotate(90)"/><rect class="h" width="2.04" height="3.9" rx="1.02" transform="translate(221.7 109.03)"/><rect class="g" width="8.76" height="25.41" transform="translate(388.633 139.35) rotate(-53.49)"/><rect class="g" width="8.76" height="25.41" transform="matrix(0.777, 0.63, -0.63, 0.777, 406.054, 130.789)"/><ellipse class="h" cx="1.8" cy="1.17" rx="1.8" ry="1.17" transform="translate(254.347 5.549) rotate(-35.65)"/><ellipse class="h" cx="0.81" cy="0.53" rx="0.81" ry="0.53" transform="translate(258.999 3.249) rotate(-35.65)"/><path class="m" d="M264.35,403.76a5.76,5.76,0,0,1-5.76-5.76V379.1H270.1V398a5.76,5.76,0,0,1-5.75,5.76Zm-4.76-23.66V398a4.76,4.76,0,1,0,9.51,0V380.1Z"/><path class="m" d="M306.18,394.06H293.07a7.9,7.9,0,0,1-7.89-7.89v-1.4h1v1.4a6.9,6.9,0,0,0,6.89,6.89h13.11Z"/><path class="m" d="M237.89,394.06H224.77v-1h13.12a6.9,6.9,0,0,0,6.89-6.89v-1.4h1v1.4A7.9,7.9,0,0,1,237.89,394.06Z"/><rect class="m" width="8.11" height="2.53" rx="1.265" transform="translate(265.49 387.93)"/><rect class="m" width="8.11" height="2.53" rx="1.265" transform="translate(265.49 392.03)"/><rect class="m" width="8.11" height="2.53" rx="1.265" transform="translate(265.49 396.13)"/><path class="h" d="M208,112.54a8.86,8.86,0,0,1,1.74-5.18c.78-1.23-1.16-2.36-1.94-1.14a10.93,10.93,0,0,0-2.05,6.32C205.81,113.98,208.06,113.99,208,112.54Z"/><path class="h" d="M212.71,104.55a2,2,0,0,1,.89-.64,1.126,1.126,0,1,0-.6-2.17,4.16,4.16,0,0,0-1.89,1.22,1.16,1.16,0,0,0,0,1.59,1.13,1.13,0,0,0,1.6,0Z"/><path class="h" d="M193.27,321l.81,7.92c.19,1.9,3.2,1.92,3,0l-.81-7.92C196.07,319.1,193.07,319.08,193.27,321Z"/><path class="h" d="M194.55,334.27a3.16,3.16,0,0,1,.14,1.16,1.5,1.5,0,0,0,1.5,1.5,1.54,1.54,0,0,0,1.5-1.5,6.51,6.51,0,0,0-.25-2,1.5,1.5,0,0,0-2.89.8Z"/><path class="h" d="M234.32,455.69v2.53a1.5,1.5,0,1,0,3,0v-2.53a1.5,1.5,0,1,0-3,0Z"/><path class="h" d="M239.85,59a19.42,19.42,0,0,1,6.72-5.13c1.75-.81.23-3.4-1.51-2.59a21.42,21.42,0,0,0-7.33,5.6c-1.25,1.46.87,3.6,2.12,2.12Z"/><path class="h" d="M251,52.09l1.9-.72a1.53,1.53,0,0,0,1.1-1.84,1.51,1.51,0,0,0-1.85-1.05l-1.9.72a1.53,1.53,0,0,0-1.09,1.8A1.51,1.51,0,0,0,251,52.09Z"/><path class="h" d="M220.2,147.5v9.64a1.5,1.5,0,0,0,3,0V147.5a1.5,1.5,0,1,0-3,0Z"/><circle class="h" cx="1.91" cy="1.91" r="1.91" transform="translate(219.93 162.47)"/></svg>